<svg xmlns="http://www.w3.org/2000/svg" xmlns:xlink="http://www.w3.org/1999/xlink" preserveAspectRatio="xMidYMid" width="14" height="9" viewBox="0 0 14 9">
  <defs>
    <style>
      .cls-1 {
        fill: #fff;
        fill-rule: evenodd;
      }
    </style>
  </defs>
  <g>
    <path d="M9.712,4.114 L14.000,0.586 L14.000,8.438 L9.712,4.114 ZM0.560,0.000 L13.440,0.000 L7.000,5.299 L0.560,0.000 ZM-0.000,8.438 L-0.000,0.586 L4.288,4.114 L-0.000,8.438 ZM7.000,6.345 L9.083,4.631 L13.416,9.000 L0.584,9.000 L4.917,4.631 L7.000,6.345 Z" class="cls-1"/>
    <path d="M0.004,-0.005 L0.004,8.996 L13.998,8.996 L13.998,-0.005 L0.004,-0.005 ZM12.856,0.604 L7.001,5.502 L1.146,0.604 L12.856,0.604 ZM0.611,8.386 L0.611,0.950 L7.001,6.296 L13.391,0.950 L13.391,8.387 L0.611,8.387 L0.611,8.386 Z" class="cls-1"/>
  </g>
</svg>
