<svg xmlns="http://www.w3.org/2000/svg" xmlns:xlink="http://www.w3.org/1999/xlink" preserveAspectRatio="xMidYMid" width="18" height="16" viewBox="0 0 18 16">
  <defs>
    <style>
      .cls-1 {
        fill: #fff;
        fill-rule: evenodd;
      }
    </style>
  </defs>
  <path d="M15.078,15.122 C14.927,15.271 14.730,15.346 14.533,15.346 C14.337,15.346 14.139,15.271 13.988,15.122 C13.691,14.820 13.689,14.334 13.988,14.034 C15.648,12.369 16.472,10.192 16.474,8.008 C16.472,5.835 15.645,3.671 13.988,2.012 C13.691,1.710 13.691,1.225 13.988,0.923 C14.290,0.622 14.774,0.622 15.078,0.923 C17.025,2.879 18.009,5.446 18.009,8.008 C18.009,10.580 17.032,13.156 15.078,15.122 ZM12.997,12.670 C12.847,12.820 12.652,12.893 12.456,12.893 C12.258,12.893 12.061,12.819 11.912,12.670 C11.613,12.369 11.613,11.879 11.912,11.580 C12.898,10.593 13.387,9.299 13.390,8.001 C13.388,6.705 12.899,5.419 11.912,4.428 C11.613,4.132 11.613,3.644 11.912,3.343 C12.212,3.044 12.697,3.044 12.997,3.343 C14.280,4.628 14.925,6.316 14.923,8.001 C14.925,9.687 14.282,11.380 12.997,12.670 ZM8.704,15.620 L3.005,11.385 L-0.010,11.385 L-0.010,4.656 L3.005,4.656 L8.830,0.302 C8.830,0.302 9.752,-0.393 9.752,0.319 C9.752,1.145 9.752,14.683 9.752,15.591 C9.752,16.498 8.704,15.620 8.704,15.620 Z" class="cls-1"/>
</svg>
